<svg width="240" height="240" viewBox="0 0 240 240" fill="none" xmlns="http://www.w3.org/2000/svg">
<path d="M120 0C53.74 0 0 53.73 0 120C0 173.02 34.38 218 82.07 233.87C88.06 234.98 90 231.26 90 228.1V205.76C56.62 213.02 49.67 191.6 49.67 191.6C44.21 177.73 36.34 174.04 36.34 174.04C25.45 166.59 37.17 166.75 37.17 166.75C49.22 167.59 55.56 179.12 55.56 179.12C66.26 197.46 83.63 192.16 90.48 189.09C91.55 181.34 94.66 176.04 98.1 173.05C71.45 170 43.43 159.71 43.43 113.74C43.43 100.63 48.12 89.93 55.79 81.53C54.55 78.5 50.44 66.29 56.96 49.77C56.96 49.77 67.04 46.55 89.97 62.07C99.54 59.41 109.8 58.08 120 58.03C130.2 58.08 140.47 59.41 150.06 62.07C172.97 46.55 183.03 49.77 183.03 49.77C189.56 66.3 185.45 78.51 184.21 81.53C191.91 89.93 196.56 100.64 196.56 113.74C196.56 159.83 168.49 169.98 141.77 172.95C146.07 176.67 150 183.97 150 195.17V228.1C150 231.29 151.92 235.04 158.01 233.86C205.66 217.97 240 173 240 120C240 53.73 186.27 0 120 0Z" fill="#94CAB8"/>
</svg>
