<svg width="170" height="150" viewBox="0 0 170 150" fill="none" xmlns="http://www.w3.org/2000/svg">
<g id="Logo">
<path id="snowLogo4" d="M119.5 112C123.642 112 127 108.642 127 104.5C127 100.358 123.642 97 119.5 97C115.358 97 112 100.358 112 104.5C112 108.642 115.358 112 119.5 112Z" fill="white"/>
<path id="snowLogo4_2" d="M152 112C154.209 112 156 110.209 156 108C156 105.791 154.209 104 152 104C149.791 104 148 105.791 148 108C148 110.209 149.791 112 152 112Z" fill="white"/>
<path id="snowLogo3" d="M88.5 112C92.6421 112 96 108.642 96 104.5C96 100.358 92.6421 97 88.5 97C84.3579 97 81 100.358 81 104.5C81 108.642 84.3579 112 88.5 112Z" fill="white"/>
<path id="snowLogo2" d="M57.5 112C61.6421 112 65 108.642 65 104.5C65 100.358 61.6421 97 57.5 97C53.3579 97 50 100.358 50 104.5C50 108.642 53.3579 112 57.5 112Z" fill="white"/>
<path id="snowLogo1" d="M26.5 112C30.6421 112 34 108.642 34 104.5C34 100.358 30.6421 97 26.5 97C22.3579 97 19 100.358 19 104.5C19 108.642 22.3579 112 26.5 112Z" fill="white"/>
<path id="Vector" d="M0.0499878 80.1541C0.647988 69.583 4.98099 59.5677 12.276 51.8941C19.572 44.2204 29.355 39.3871 39.882 38.2558C50.41 37.1246 60.997 39.7689 69.756 45.7174C78.5149 51.6659 84.8767 60.5319 87.7069 70.7347C88.2482 70.7152 88.7889 70.6935 89.3349 70.6935C98.9872 70.6953 108.379 73.8222 116.107 79.6066C123.834 85.3909 129.48 93.5217 132.201 102.782C138.597 99.9721 145.745 99.3624 152.525 101.049C159.304 102.735 165.333 106.622 169.667 112.102H30.305C26.239 112.113 22.213 111.304 18.467 109.723C14.722 108.142 11.333 105.821 8.50598 102.9C5.67798 99.9786 3.46899 96.5168 2.01099 92.7217C0.551986 88.9265 -0.125018 84.8761 0.0189819 80.813C0.0279819 80.5937 0.0379878 80.3741 0.0499878 80.1541Z" fill="#94CAB8"/>
</g>
</svg>
