<svg width="171" height="112" viewBox="0 0 171 112" fill="none" xmlns="http://www.w3.org/2000/svg">
<path d="M0.552979 43.1512C1.15098 32.5801 5.48398 22.5648 12.779 14.8912C20.075 7.21749 29.858 2.38415 40.385 1.25289C50.913 0.121633 61.5 2.766 70.259 8.71451C79.0179 14.663 85.3797 23.529 88.2099 33.7318C88.7512 33.7123 89.2919 33.6906 89.8379 33.6906C99.4902 33.6924 108.882 36.8193 116.61 42.6037C124.337 48.388 129.983 56.5188 132.704 65.7795C139.1 62.9692 146.248 62.3595 153.028 64.0458C159.807 65.7322 165.836 69.6194 170.17 75.0987H30.808C26.742 75.1102 22.716 74.3012 18.97 72.7201C15.225 71.139 11.836 68.8183 9.00897 65.897C6.18097 62.9757 3.97198 59.5139 2.51398 55.7188C1.05498 51.9236 0.377973 47.8732 0.521973 43.8101C0.530973 43.5908 0.540979 43.3712 0.552979 43.1512Z" fill="#94CAB8"/>
<path d="M155 95C158.314 95 161 92.3137 161 89C161 85.6863 158.314 83 155 83C151.686 83 149 85.6863 149 89C149 92.3137 151.686 95 155 95Z" fill="white"/>
<path d="M128.5 112C132.642 112 136 108.642 136 104.5C136 100.358 132.642 97 128.5 97C124.358 97 121 100.358 121 104.5C121 108.642 124.358 112 128.5 112Z" fill="white"/>
<path d="M66.5 106C70.6421 106 74 102.642 74 98.5C74 94.3579 70.6421 91 66.5 91C62.3579 91 59 94.3579 59 98.5C59 102.642 62.3579 106 66.5 106Z" fill="white"/>
<path d="M100.5 94C104.642 94 108 90.6421 108 86.5C108 82.3579 104.642 79 100.5 79C96.3579 79 93 82.3579 93 86.5C93 90.6421 96.3579 94 100.5 94Z" fill="white"/>
<path d="M44.5 98C48.6421 98 52 94.6421 52 90.5C52 86.3579 48.6421 83 44.5 83C40.3579 83 37 86.3579 37 90.5C37 94.6421 40.3579 98 44.5 98Z" fill="white"/>
</svg>
