<svg width="70" height="124" viewBox="0 0 170 124" fill="none" xmlns="http://www.w3.org/2000/svg">
    <g id="Logo">
        <path id="snowLogo5" d="M146.497 89.0029C148.706 89.0029 150.497 87.2121 150.497 85.0029C150.497 82.7938 148.706 81.0029 146.497 81.0029C144.288 81.0029 142.497 82.7938 142.497 85.0029C142.497 87.2121 144.288 89.0029 146.497 89.0029Z" fill="white" />
        <path id="snowLogo4" d="M104.997 89C109.139 89 112.497 85.6421 112.497 81.5C112.497 77.3579 109.139 74 104.997 74C100.855 74 97.497 77.3579 97.497 81.5C97.497 85.6421 100.855 89 104.997 89Z" fill="white" />
        <path id="snowLogo3" d="M42.997 89C47.1391 89 50.497 85.6421 50.497 81.5C50.497 77.3579 47.1391 74 42.997 74C38.8549 74 35.497 77.3579 35.497 81.5C35.497 85.6421 38.8549 89 42.997 89Z" fill="white" />
        <path id="snowLogo2" d="M76.997 89C81.1391 89 84.497 85.6421 84.497 81.5C84.497 77.3579 81.1391 74 76.997 74C72.8549 74 69.497 77.3579 69.497 81.5C69.497 85.6421 72.8549 89 76.997 89Z" fill="white" />
        <path id="snowLogo1" d="M27.5 85C31.6421 85 35 81.6421 35 77.5C35 73.3579 31.6421 70 27.5 70C23.3579 70 20 73.3579 20 77.5C20 81.6421 23.3579 85 27.5 85Z" fill="white" />
        <path id="Vector" d="M0.0499878 59.1541C0.647988 48.583 4.98099 38.5677 12.276 30.8941C19.572 23.2204 29.355 18.3871 39.882 17.2558C50.41 16.1246 60.997 18.7689 69.756 24.7174C78.5149 30.6659 84.8767 39.5319 87.7069 49.7347C88.2482 49.7152 88.7889 49.6935 89.3349 49.6935C98.9872 49.6953 108.379 52.8222 116.107 58.6066C123.834 64.3909 129.48 72.5217 132.201 81.7824C138.597 78.9721 145.745 78.3624 152.525 80.0487C159.304 81.7351 165.333 85.6223 169.667 91.1016H30.305C26.239 91.1131 22.213 90.3041 18.467 88.723C14.722 87.1419 11.333 84.8212 8.50598 81.8999C5.67798 78.9786 3.46899 75.5168 2.01099 71.7217C0.551986 67.9265 -0.125018 63.8761 0.0189819 59.813C0.0279819 59.5937 0.0379878 59.3741 0.0499878 59.1541Z" fill="#94CAB8" />
    </g>
</svg>
