<svg width="1105" height="798" viewBox="0 0 1105 798" fill="none" xmlns="http://www.w3.org/2000/svg">
<g id="searching">
<path id="Vector" d="M968.881 388.464H959.049V776.809H968.881V388.464Z" fill="#3F3D56"/>
<path id="Vector_2" d="M1059.61 437.954C1060.24 573.748 964.701 684.274 964.701 684.274C964.701 684.274 868.148 574.634 867.522 438.839C866.896 303.044 962.435 192.518 962.435 192.518C962.435 192.518 1058.99 302.159 1059.61 437.954Z" fill="#074A4E"/>
<path id="Vector_3" d="M772.3 571.186H767.244V770.921H772.3V571.186Z" fill="#3F3D56"/>
<path id="Vector_4" d="M818.967 596.64C819.289 666.482 770.151 723.328 770.151 723.328C770.151 723.328 720.491 666.937 720.17 597.095C719.848 527.252 768.985 470.406 768.985 470.406C768.985 470.406 818.645 526.797 818.967 596.64Z" fill="#074A4E"/>
<path id="Vector_5" d="M871.969 797.515C947.632 797.515 1008.97 788.113 1008.97 776.515C1008.97 764.917 947.632 755.515 871.969 755.515C796.306 755.515 734.969 764.917 734.969 776.515C734.969 788.113 796.306 797.515 871.969 797.515Z" fill="white"/>
<path id="Vector_6" d="M883.268 287.081C871.661 267.469 848.698 266.555 848.698 266.555C848.698 266.555 826.321 263.694 811.967 293.563C798.587 321.404 780.122 348.285 808.994 354.802L814.209 338.57L817.439 356.011C821.55 356.306 825.674 356.377 829.792 356.222C860.712 355.223 890.158 356.514 889.21 345.419C887.949 330.669 894.436 305.952 883.268 287.081Z" fill="#2F2E41"/>
<path id="Vector_7" d="M841.469 324.015C841.469 324.015 856.469 345.015 847.469 362.015C838.469 379.015 868.469 397.015 868.469 397.015L890.469 349.015C890.469 349.015 864.469 332.015 871.469 316.015L841.469 324.015Z" fill="#FBBEBE"/>
<path id="Vector_8" d="M851.469 333.015C865.828 333.015 877.469 321.374 877.469 307.015C877.469 292.656 865.828 281.015 851.469 281.015C837.109 281.015 825.469 292.656 825.469 307.015C825.469 321.374 837.109 333.015 851.469 333.015Z" fill="#FBBEBE"/>
<path id="Vector_9" d="M761.489 337.071L783.217 309.037C783.217 309.037 790.868 279.652 801.948 281.142C813.029 282.632 797.572 316.382 797.572 316.382L775.982 347.412L761.489 337.071Z" fill="#FBBEBE"/>
<path id="Vector_10" d="M871.469 710.015L878.469 747.015L893.469 751.015L889.469 707.015L871.469 710.015Z" fill="#FBBEBE"/>
<path id="Vector_11" d="M1022.47 670.015L1049.47 707.015L1060.47 712.015L1069.47 697.015L1042.47 662.015L1022.47 670.015Z" fill="#FBBEBE"/>
<path id="Vector_12" d="M865.469 381.015L848.788 359.056C848.788 359.056 816.469 365.015 813.469 368.015C810.469 371.015 821.469 426.015 821.469 426.015C821.469 426.015 823.469 441.015 832.469 449.015L841.469 455.015L915.469 440.015L918.251 407.089C919.265 395.096 922.174 379.393 918.251 368.015C914.328 356.637 903.658 349.835 895.469 341.015L882.593 342.775L865.469 381.015Z" fill="#5B7E72"/>
<path id="Vector_13" d="M817.469 370.015L812.469 368.015L789.469 366.015C789.469 366.015 781.469 364.015 783.469 360.015C785.469 356.015 787.469 355.015 783.469 354.015C779.469 353.015 778.469 352.015 779.469 349.015C780.469 346.015 786.469 340.015 786.469 340.015L769.469 326.015C769.469 326.015 768.549 326.666 767.061 327.87C758.621 334.704 731.914 359.359 751.469 384.015C774.469 413.015 801.469 430.015 823.469 424.015L817.469 370.015Z" fill="#5B7E72"/>
<path id="Vector_14" d="M839.469 450.015V464.015C839.469 464.015 830.469 481.015 833.469 497.015C836.469 513.015 837.469 521.015 837.469 521.015C837.795 534.623 840.155 548.105 844.469 561.015C851.469 581.015 828.469 712.015 857.469 714.015C886.469 716.015 902.469 718.015 911.469 708.015C920.469 698.015 896.469 526.015 896.469 526.015C896.469 526.015 978.469 697.015 995.469 690.015C1012.47 683.015 1055.47 667.015 1050.47 658.015C1045.47 649.015 919.469 449.015 919.469 449.015L915.469 440.015L839.469 450.015Z" fill="#7DBBA6"/>
<path id="Vector_15" d="M887.469 740.015C887.469 740.015 871.469 739.015 871.469 744.015C871.469 749.015 863.469 766.015 863.469 766.015C863.469 766.015 857.469 786.015 873.469 784.015C889.469 782.015 899.469 764.015 899.469 764.015L895.469 745.015L887.469 740.015Z" fill="#2F2E41"/>
<path id="Vector_16" d="M1054.47 705.015C1054.47 705.015 1040.47 696.015 1041.47 702.015C1042.47 708.015 1043.47 724.015 1050.47 725.015C1057.47 726.015 1078.47 732.015 1079.47 734.015C1080.47 736.015 1104.47 744.015 1104.47 731.015C1104.47 718.015 1089.47 708.015 1089.47 708.015L1072.47 695.015C1072.47 695.015 1061.47 694.015 1059.47 701.015C1057.47 708.015 1054.47 705.015 1054.47 705.015Z" fill="#2F2E41"/>
<path id="Vector_17" d="M851.508 283.258C860.678 283.258 868.112 275.824 868.112 266.654C868.112 257.484 860.678 250.051 851.508 250.051C842.338 250.051 834.904 257.484 834.904 266.654C834.904 275.824 842.338 283.258 851.508 283.258Z" fill="#2F2E41"/>
<path id="Vector_18" d="M833.157 262.285C833.157 258.184 834.675 254.229 837.418 251.18C840.161 248.132 843.935 246.206 848.013 245.775C847.432 245.713 846.849 245.682 846.265 245.681C841.861 245.681 837.638 247.431 834.524 250.544C831.41 253.658 829.661 257.881 829.661 262.285C829.661 266.689 831.41 270.912 834.524 274.026C837.638 277.139 841.861 278.889 846.265 278.889C846.849 278.888 847.432 278.857 848.013 278.795C843.935 278.364 840.161 276.438 837.418 273.39C834.675 270.341 833.157 266.386 833.157 262.285Z" fill="#2F2E41"/>
<path id="Vector_19" d="M878.136 285.191L855.45 273.307L824.12 278.169L817.638 306.797L833.774 306.176L838.282 295.659V306.003L845.727 305.717L850.048 288.972L852.749 306.797L879.217 306.257L878.136 285.191Z" fill="#2F2E41"/>
<path id="Vector_20" d="M876.778 452.332L841.791 453.278C841.791 453.278 811.937 459.087 813.612 447.037C815.287 434.987 844.411 439.202 844.411 439.202L876.291 434.338L876.778 452.332Z" fill="#FBBEBE"/>
<path id="Vector_21" d="M904.46 339.32C906.219 339.054 908.014 339.424 909.524 340.364C911.034 341.304 912.159 342.752 912.696 344.448C919.545 366.032 940.647 438.261 919.681 448.171C894.988 459.842 876.967 459.329 876.967 459.329L867.322 435.581L876.102 427.341L885.477 367.066L889.969 341.515L904.46 339.32Z" fill="#5B7E72"/>
<path id="Vector_22" opacity="0.4" d="M897.969 379.515L893.969 419.515L858.969 434.515L897.969 425.515V379.515Z" fill="black"/>
<path id="Vector_23" d="M709.214 247.463C720.487 250.45 730.241 257.535 736.567 267.332L739.838 272.398L740.002 272.607L797.387 289.399C798.439 289.707 799.328 290.415 799.863 291.372C800.398 292.328 800.536 293.457 800.248 294.514L795.793 310.849C795.648 311.381 795.399 311.879 795.061 312.315C794.722 312.75 794.301 313.115 793.821 313.387C793.342 313.659 792.813 313.833 792.265 313.9C791.718 313.967 791.163 313.925 790.631 313.777L733.232 297.733L733.231 297.735L727.466 299.914C716.851 303.927 705.207 304.323 694.344 301.04L709.214 247.463Z" fill="#5B7E72"/>
<path id="Vector_24" d="M769.647 294.836C770.19 292.979 767.808 290.647 764.325 289.628C760.842 288.609 757.578 289.288 757.035 291.146C756.491 293.003 758.874 295.335 762.357 296.354C765.839 297.373 769.103 296.693 769.647 294.836Z" fill="#074A4E"/>
<path id="Vector_25" d="M766.716 296.549C768.047 296.549 769.125 295.47 769.125 294.14C769.125 292.809 768.047 291.731 766.716 291.731C765.386 291.731 764.307 292.809 764.307 294.14C764.307 295.47 765.386 296.549 766.716 296.549Z" fill="#4AC7CE"/>
<path id="Vector_26" d="M714.012 278.403C718.797 263.646 717.266 249.928 710.593 247.764C703.919 245.6 694.63 255.809 689.845 270.567C685.06 285.324 686.59 299.042 693.264 301.206C699.937 303.37 709.226 293.161 714.012 278.403Z" fill="#F8F389"/>
<path id="Vector_27" opacity="0.4" d="M712.228 277.881C716.839 263.662 715.585 250.409 709.517 247.526C709.882 247.572 710.242 247.652 710.593 247.764C717.266 249.928 718.797 263.646 714.012 278.403C709.226 293.161 699.937 303.37 693.264 301.206C693.022 301.127 692.785 301.032 692.556 300.922C699.12 301.758 707.695 291.862 712.228 277.881Z" fill="black"/>
<path id="Vector_28" d="M709.969 247.515L579.731 146.49C556.701 128.496 534.6 109.343 513.516 89.1043C476.39 53.7166 425.992 25.4235 367.315 10.36C224.753 -26.2376 111.816 38.6545 60.4487 133.938C-18.0459 279.542 -78.2016 515.818 269.843 390.048C345.959 362.543 423.007 359.619 481.429 345.131L692.969 301.515L709.969 247.515Z" fill="#509FA4"/>
<path id="Vector_29" d="M318.969 77.5151C322.835 77.5151 325.969 74.3811 325.969 70.5151C325.969 66.6491 322.835 63.5151 318.969 63.5151C315.103 63.5151 311.969 66.6491 311.969 70.5151C311.969 74.3811 315.103 77.5151 318.969 77.5151Z" fill="#F2F2F2"/>
<path id="star" d="M454.949 86.695H453.127V84.873H452.771V86.695H450.949V87.051H452.771V88.873H453.127V87.051H454.949V86.695Z" fill="#F2F2F2"/>
<path id="star_2" d="M637.949 238.695H636.127V236.873H635.771V238.695H633.949V239.051H635.771V240.873H636.127V239.051H637.949V238.695Z" fill="#F2F2F2"/>
<path id="star_3" d="M624.949 285.695H623.127V283.873H622.771V285.695H620.949V286.051H622.771V287.873H623.127V286.051H624.949V285.695Z" fill="#F2F2F2"/>
<path id="star_4" d="M65.949 325.695H64.127V323.873H63.771V325.695H61.949V326.051H63.771V327.873H64.127V326.051H65.949V325.695Z" fill="#F2F2F2"/>
<path id="star_5" d="M145.949 107.695H144.127V105.873H143.771V107.695H141.949V108.051H143.771V109.873H144.127V108.051H145.949V107.695Z" fill="#F2F2F2"/>
<path id="star_6" d="M456.949 293.695H455.127V291.873H454.771V293.695H452.949V294.051H454.771V295.873H455.127V294.051H456.949V293.695Z" fill="#F2F2F2"/>
<path id="star_7" d="M265.949 43.695H264.127V41.873H263.771V43.695H261.949V44.051H263.771V45.873H264.127V44.051H265.949V43.695Z" fill="#F2F2F2"/>
<path id="Vector_30" d="M266.649 187.673L264.379 188.023C265.089 192.563 265.649 197.203 266.059 201.793L268.349 201.593C267.939 196.943 267.369 192.263 266.649 187.673Z" fill="#E6E6E6"/>
<path id="Vector_31" d="M260.439 158.333L258.239 159.003C259.569 163.403 260.759 167.913 261.769 172.403L264.019 171.893C262.989 167.353 261.779 162.793 260.439 158.333Z" fill="#E6E6E6"/>
<path id="Vector_32" d="M250.529 134.113L248.439 135.073C250.359 139.263 252.159 143.563 253.789 147.863L255.939 147.053C254.289 142.703 252.479 138.343 250.529 134.113Z" fill="#E6E6E6"/>
<path id="Vector_33" d="M237.129 108.533L235.189 109.763C237.659 113.643 240.029 117.663 242.229 121.693L244.249 120.593C242.029 116.513 239.629 112.453 237.129 108.533Z" fill="#E6E6E6"/>
<path id="Vector_34" d="M220.469 87.003L218.719 88.493C221.699 91.993 224.599 95.653 227.339 99.353L229.179 97.983C226.419 94.243 223.489 90.543 220.469 87.003Z" fill="#E6E6E6"/>
<path id="Vector_35" d="M200.889 66.943L199.359 68.653C202.799 71.723 206.169 74.953 209.379 78.243L211.029 76.633C207.779 73.303 204.369 70.043 200.889 66.943Z" fill="#E6E6E6"/>
<path id="Vector_36" d="M178.769 49.723L177.479 51.623C181.299 54.193 185.079 56.933 188.709 59.763L190.129 57.9529C186.449 55.093 182.629 52.323 178.769 49.723Z" fill="#E6E6E6"/>
<path id="Vector_37" d="M158.639 37.763V40.363C161.029 41.613 163.399 42.923 165.719 44.263L166.869 42.273C164.169 40.713 161.426 39.2097 158.639 37.763Z" fill="#E6E6E6"/>
<path id="Vector_38" d="M266.804 215.979L269.103 215.937C269.145 218.258 269.148 220.591 269.112 222.873L266.814 222.837C266.849 220.582 266.846 218.274 266.804 215.979Z" fill="#E6E6E6"/>
<path id="Vector_39" d="M131.649 384.673L129.379 385.023C130.089 389.563 130.649 394.203 131.059 398.793L133.349 398.593C132.939 393.943 132.369 389.263 131.649 384.673Z" fill="#E6E6E6"/>
<path id="Vector_40" d="M125.439 357.333L123.239 358.003C124.569 362.403 125.759 366.913 126.769 371.403L129.019 370.893C127.989 366.353 126.779 361.793 125.439 357.333Z" fill="#E6E6E6"/>
<path id="Vector_41" d="M115.529 331.113L113.439 332.073C115.359 336.263 117.159 340.563 118.789 344.863L120.939 344.053C119.289 339.703 117.479 335.343 115.529 331.113Z" fill="#E6E6E6"/>
<path id="Vector_42" d="M102.129 306.533L100.189 307.763C102.659 311.643 105.029 315.663 107.229 319.693L109.249 318.593C107.029 314.513 104.629 310.453 102.129 306.533Z" fill="#E6E6E6"/>
<path id="Vector_43" d="M85.4693 284.003L83.7193 285.493C86.6993 288.993 89.5993 292.653 92.3393 296.353L94.1793 294.983C91.4192 291.243 88.4892 287.543 85.4693 284.003Z" fill="#E6E6E6"/>
<path id="Vector_44" d="M65.8893 263.943L64.3593 265.653C67.7993 268.723 71.1692 271.953 74.3792 275.243L76.0293 273.633C72.7793 270.303 69.3692 267.043 65.8893 263.943Z" fill="#E6E6E6"/>
<path id="Vector_45" d="M43.7692 246.723L42.4792 248.623C46.2992 251.193 50.0792 253.933 53.7092 256.763L55.1292 254.953C51.4492 252.093 47.6292 249.323 43.7692 246.723Z" fill="#E6E6E6"/>
<path id="Vector_46" d="M23.6392 234.763V237.363C26.0292 238.613 28.3992 239.923 30.7192 241.263L31.8692 239.273C29.1692 237.713 26.4259 236.21 23.6392 234.763Z" fill="#E6E6E6"/>
<path id="Vector_47" d="M131.804 412.979L134.103 412.937C134.145 415.258 134.148 417.591 134.112 419.873L131.814 419.837C131.849 417.582 131.846 415.274 131.804 412.979Z" fill="#E6E6E6"/>
<path id="Vector_48" d="M593.649 285.673L591.379 286.023C592.089 290.563 592.649 295.203 593.059 299.793L595.349 299.593C594.939 294.943 594.369 290.263 593.649 285.673Z" fill="#E6E6E6"/>
<path id="Vector_49" d="M587.439 258.333L585.239 259.003C586.569 263.403 587.759 267.913 588.769 272.403L591.019 271.893C589.989 267.353 588.779 262.793 587.439 258.333Z" fill="#E6E6E6"/>
<path id="Vector_50" d="M577.529 232.113L575.439 233.073C577.359 237.263 579.159 241.563 580.789 245.863L582.939 245.053C581.289 240.703 579.479 236.343 577.529 232.113Z" fill="#E6E6E6"/>
<path id="Vector_51" d="M564.129 207.533L562.189 208.763C564.659 212.643 567.029 216.663 569.229 220.693L571.249 219.593C569.029 215.513 566.629 211.453 564.129 207.533Z" fill="#E6E6E6"/>
<path id="Vector_52" d="M547.469 185.003L545.719 186.493C548.699 189.993 551.599 193.653 554.339 197.353L556.179 195.983C553.419 192.243 550.489 188.543 547.469 185.003Z" fill="#E6E6E6"/>
<path id="Vector_53" d="M527.889 164.943L526.359 166.653C529.799 169.723 533.169 172.953 536.379 176.243L538.029 174.633C534.779 171.303 531.369 168.043 527.889 164.943Z" fill="#E6E6E6"/>
<path id="Vector_54" d="M505.769 147.723L504.479 149.623C508.299 152.193 512.079 154.933 515.709 157.763L517.129 155.953C513.449 153.093 509.629 150.323 505.769 147.723Z" fill="#E6E6E6"/>
<path id="Vector_55" d="M485.639 135.763V138.363C488.029 139.613 490.399 140.923 492.719 142.263L493.869 140.273C491.169 138.713 488.426 137.21 485.639 135.763Z" fill="#E6E6E6"/>
<path id="Vector_56" d="M593.804 313.979L596.103 313.937C596.145 316.258 596.148 318.591 596.112 320.873L593.814 320.837C593.849 318.582 593.846 316.274 593.804 313.979Z" fill="#E6E6E6"/>
<path id="Vector_57" d="M149.295 199.895H147.6V198.199H147.269V199.895H145.573V200.225H147.269V201.921H147.6V200.225H149.295V199.895Z" fill="#F2F2F2"/>
<path id="Vector_58" d="M129.754 302.252H128.059V300.556H127.728V302.252H126.032V302.583H127.728V304.278H128.059V302.583H129.754V302.252Z" fill="#F2F2F2"/>
<path id="Vector_59" d="M72.417 391.959H70.721V390.264H70.39V391.959H68.695V392.29H70.39V393.986H70.721V392.29H72.417V391.959Z" fill="#F2F2F2"/>
<path id="question-mark" d="M354.779 273.787C369.376 297.862 366.065 322.521 346.87 334.16C334.159 341.867 321.627 341.037 307.428 333.403C294.171 326.164 287.124 325.257 278.906 330.239C278.24 330.643 277.501 330.912 276.731 331.03C275.961 331.148 275.176 331.114 274.419 330.928C273.663 330.743 272.95 330.41 272.322 329.95C271.694 329.489 271.163 328.909 270.759 328.243L263.297 315.936C262.5 314.621 262.245 313.049 262.584 311.549C262.924 310.05 263.833 308.741 265.119 307.899L265.732 307.498C278.295 298.388 289.315 298.027 303.165 305.521C316.228 312.439 323.1 314.506 331.061 309.679C339.021 304.852 340.192 293.606 334.392 284.041C329.984 276.77 322.956 273.162 315.578 274.027C313.06 274.285 310.52 273.817 308.26 272.677C305.999 271.538 304.113 269.775 302.823 267.596C297.766 259.257 303.294 248.372 313.03 247.802C328.43 246.902 343.668 255.464 354.779 273.787ZM234.505 323.621C241.888 319.145 251.467 321.766 256.06 329.341C260.692 336.981 258.651 346.647 251.204 351.162C243.758 355.678 234.243 353.018 229.611 345.378C224.978 337.739 227.058 328.137 234.505 323.621Z" fill="#4F56FF"/>
<path id="question-mark_2" d="M469.957 181.495C494.757 168.169 519.211 172.756 529.837 192.53C536.873 205.624 535.393 218.096 527.032 231.879C519.114 244.742 517.842 251.733 522.391 260.198C522.759 260.884 522.989 261.636 523.067 262.411C523.145 263.186 523.07 263.969 522.846 264.715C522.621 265.461 522.252 266.155 521.759 266.758C521.266 267.361 520.66 267.862 519.974 268.23L507.295 275.043C505.941 275.771 504.357 275.944 502.878 275.527C501.398 275.11 500.139 274.134 499.364 272.806L498.995 272.173C490.55 259.154 490.763 248.13 498.966 234.688C506.554 222.002 508.975 215.247 504.568 207.046C500.161 198.845 488.991 197.092 479.137 202.387C471.648 206.411 467.679 213.242 468.159 220.655C468.286 223.183 467.687 225.695 466.431 227.893C465.176 230.092 463.317 231.884 461.075 233.059C452.484 237.675 441.901 231.59 441.838 221.838C441.739 206.412 451.081 191.638 469.957 181.495ZM513.475 304.195C509.388 296.59 512.503 287.16 520.307 282.967C528.177 278.738 537.724 281.278 541.846 288.95C545.968 296.621 542.818 305.985 534.948 310.214C527.078 314.443 517.597 311.867 513.475 304.195Z" fill="#7DBBA6"/>
<path id="question-mark_3" d="M84.6881 135.824C105.598 116.971 130.44 115.598 145.473 132.27C155.427 143.31 156.962 155.775 152.127 171.154C147.503 185.533 147.933 192.626 154.369 199.763C154.89 200.341 155.293 201.017 155.553 201.751C155.814 202.485 155.927 203.263 155.887 204.041C155.847 204.818 155.654 205.581 155.319 206.284C154.984 206.987 154.514 207.618 153.935 208.139L143.246 217.777C142.104 218.807 140.608 219.353 139.071 219.3C137.535 219.248 136.079 218.601 135.011 217.495L134.501 216.969C123.196 206.337 120.776 195.58 125.539 180.57C129.884 166.442 130.626 159.304 124.392 152.39C118.157 145.476 106.891 146.435 98.5833 153.926C92.2687 159.619 90.0427 167.199 92.2753 174.284C93.0015 176.709 93.0178 179.292 92.3225 181.726C91.6271 184.16 90.2491 186.344 88.3515 188.019C81.1089 194.55 69.3797 191.162 66.9946 181.706C63.2215 166.748 68.7733 150.174 84.6881 135.824ZM156.195 244.617C150.414 238.204 151.191 228.304 157.771 222.372C164.406 216.389 174.284 216.581 180.116 223.049C185.948 229.517 185.12 239.361 178.484 245.344C171.849 251.327 162.027 251.085 156.195 244.617Z" fill="#E25F5F"/>
<path id="question-mark_4" d="M293.683 64.3398C303.069 67.0335 308.166 73.6282 306.21 80.444C304.914 84.9575 301.615 87.3909 296.272 88.5467C291.256 89.5992 289.295 90.8622 288.458 93.78C288.39 94.0165 288.271 94.236 288.109 94.426C287.947 94.616 287.745 94.7727 287.513 94.8872C287.281 95.0018 287.025 95.0718 286.76 95.0935C286.494 95.1152 286.223 95.0879 285.964 95.0134L281.165 93.6364C280.653 93.4893 280.212 93.1667 279.937 92.7367C279.661 92.3067 279.572 91.8028 279.688 91.3312L279.743 91.1064C280.665 86.2884 283.305 83.8878 288.529 82.7716C293.419 81.6833 295.615 80.7343 296.426 77.9077C297.237 75.0811 294.829 72.1447 291.1 71.0745C288.265 70.261 285.661 70.8738 284.044 72.6301C283.483 73.2208 282.742 73.6422 281.91 73.8443C281.077 74.0465 280.187 74.0209 279.346 73.7708C276.095 72.8377 274.851 69.0726 277.122 66.8917C280.715 63.4418 286.539 62.2896 293.683 64.3398ZM275.887 101.522C276.639 98.9005 279.638 97.5157 282.591 98.3633C285.57 99.2181 287.384 101.959 286.625 104.604C285.866 107.248 282.874 108.61 279.896 107.755C276.917 106.9 275.128 104.166 275.887 101.522Z" fill="#4F56FF"/>
<path id="question-mark_5" d="M199.253 139.656C206.511 133.124 214.804 132.295 219.548 137.566C222.689 141.056 223.005 145.143 221.154 150.287C219.389 155.099 219.421 157.431 221.452 159.687C221.617 159.87 221.74 160.087 221.815 160.325C221.89 160.563 221.916 160.818 221.89 161.075C221.865 161.332 221.789 161.586 221.666 161.823C221.544 162.06 221.377 162.275 221.176 162.456L217.466 165.796C217.07 166.152 216.563 166.355 216.052 166.361C215.541 166.367 215.067 166.175 214.728 165.827L214.567 165.661C210.97 162.326 210.332 158.816 212.153 153.794C213.822 149.07 214.181 146.705 212.213 144.519C210.246 142.333 206.479 142.82 203.596 145.415C201.404 147.388 200.544 149.921 201.176 152.224C201.38 153.013 201.345 153.864 201.075 154.677C200.806 155.49 200.313 156.231 199.654 156.812C197.14 159.075 193.288 158.135 192.642 155.053C191.62 150.178 193.729 144.629 199.253 139.656ZM221.357 174.45C219.533 172.423 219.947 169.147 222.23 167.091C224.534 165.018 227.819 164.932 229.66 166.977C231.5 169.021 231.07 172.28 228.767 174.353C226.464 176.426 223.198 176.495 221.357 174.45Z" fill="#4F56FF"/>
<path id="question-mark_6" d="M354.044 218.311C348.638 226.443 340.81 229.306 334.905 225.38C330.995 222.781 329.674 218.9 330.188 213.457C330.702 208.358 330.091 206.107 327.563 204.426C327.358 204.29 327.185 204.111 327.053 203.899C326.921 203.687 326.833 203.447 326.794 203.191C326.754 202.936 326.765 202.671 326.825 202.411C326.885 202.151 326.992 201.901 327.142 201.676L329.906 197.519C330.201 197.075 330.642 196.753 331.135 196.62C331.628 196.488 332.135 196.555 332.55 196.808L332.747 196.929C337.061 199.265 338.551 202.507 338.035 207.824C337.593 212.814 337.833 215.194 340.282 216.822C342.731 218.451 346.258 217.043 348.406 213.812C350.039 211.357 350.242 208.689 349.058 206.616C348.664 205.903 348.487 205.07 348.546 204.215C348.605 203.36 348.898 202.52 349.391 201.793C351.264 198.977 355.229 198.93 356.621 201.755C358.822 206.223 358.159 212.122 354.044 218.311ZM323.986 190.103C326.257 191.613 326.67 194.89 324.969 197.448C323.253 200.029 320.092 200.929 317.801 199.406C315.51 197.883 315.117 194.619 316.832 192.039C318.548 189.458 321.695 188.58 323.986 190.103Z" fill="#E25F5F"/>
<path id="question-mark_7" d="M162.683 275.34C172.069 278.033 177.166 284.628 175.21 291.444C173.914 295.957 170.615 298.391 165.272 299.547C160.256 300.599 158.295 301.862 157.458 304.78C157.39 305.017 157.271 305.236 157.109 305.426C156.947 305.616 156.745 305.773 156.513 305.887C156.281 306.002 156.025 306.072 155.76 306.093C155.494 306.115 155.223 306.088 154.964 306.013L150.165 304.636C149.653 304.489 149.212 304.167 148.937 303.737C148.661 303.307 148.572 302.803 148.688 302.331L148.743 302.106C149.665 297.288 152.305 294.888 157.529 293.772C162.419 292.683 164.615 291.734 165.426 288.908C166.237 286.081 163.829 283.145 160.1 282.074C157.265 281.261 154.661 281.874 153.044 283.63C152.483 284.221 151.742 284.642 150.91 284.844C150.077 285.046 149.187 285.021 148.346 284.771C145.095 283.838 143.851 280.073 146.122 277.892C149.715 274.442 155.539 273.29 162.683 275.34ZM144.887 312.522C145.639 309.901 148.638 308.516 151.591 309.363C154.57 310.218 156.384 312.959 155.625 315.604C154.866 318.248 151.874 319.61 148.896 318.755C145.917 317.9 144.128 315.166 144.887 312.522Z" fill="#E25F5F"/>
<path id="question-mark_8" d="M395.238 299.66C393.968 289.978 397.986 282.675 405.016 281.753C409.672 281.142 413.219 283.198 416.408 287.639C419.372 291.82 421.312 293.115 424.322 292.72C424.566 292.688 424.814 292.709 425.053 292.782C425.292 292.855 425.517 292.978 425.714 293.145C425.911 293.312 426.078 293.519 426.203 293.754C426.329 293.989 426.412 294.248 426.447 294.516L427.096 299.465C427.166 299.994 427.046 300.527 426.761 300.951C426.476 301.375 426.05 301.657 425.571 301.739L425.343 301.778C420.556 302.852 417.303 301.388 414.197 297.042C411.25 292.99 409.505 291.354 406.589 291.737C403.673 292.119 401.94 295.498 402.444 299.345C402.828 302.269 404.428 304.413 406.683 305.197C407.449 305.476 408.13 305.987 408.647 306.67C409.165 307.353 409.496 308.179 409.602 309.051C410.042 312.405 407.084 315.046 404.179 313.832C399.583 311.911 396.205 307.029 395.238 299.66ZM436.432 301.164C433.728 301.518 431.263 299.32 430.864 296.274C430.461 293.201 432.252 290.445 434.979 290.087C437.707 289.73 440.148 291.931 440.551 295.003C440.954 298.075 439.16 300.806 436.432 301.164Z" fill="#4F56FF"/>
<path id="question-mark_9" d="M43.2594 367.091C33.5018 366.715 26.979 361.526 27.2526 354.44C27.4339 349.748 30.0572 346.598 34.9707 344.201C39.5907 341.982 41.1936 340.288 41.3108 337.255C41.3203 337.009 41.3828 336.767 41.4949 336.544C41.607 336.321 41.7664 336.121 41.964 335.954C42.1616 335.788 42.3935 335.659 42.6465 335.574C42.8996 335.49 43.1687 335.452 43.4387 335.462L48.427 335.655C48.9597 335.675 49.4644 335.883 49.8346 336.235C50.2049 336.587 50.4117 337.055 50.4115 337.541L50.4114 337.772C50.6652 342.671 48.6746 345.632 43.8679 347.962C39.3781 350.186 37.4721 351.631 37.3586 354.57C37.2451 357.508 40.2842 359.785 44.1612 359.935C47.108 360.049 49.4905 358.833 50.6426 356.741C51.0464 356.034 51.665 355.448 52.4253 355.053C53.1856 354.658 54.0557 354.471 54.9327 354.513C58.3125 354.643 60.4189 358.003 58.7331 360.663C56.0665 364.87 50.6862 367.378 43.2594 367.091ZM51.6716 326.738C51.5663 329.463 48.9851 331.523 45.9147 331.404C42.8183 331.285 40.4027 329.055 40.5089 326.306C40.6151 323.557 43.1954 321.521 46.2918 321.641C49.3882 321.76 51.7777 323.989 51.6716 326.738Z" fill="#7DBBA6"/>
<path id="question-mark_10" d="M144.433 356.557C150.888 349.231 159.031 347.451 164.351 352.139C167.874 355.243 168.66 359.267 167.414 364.59C166.216 369.573 166.517 371.886 168.795 373.893C168.98 374.055 169.127 374.256 169.229 374.484C169.332 374.712 169.386 374.962 169.391 375.221C169.395 375.479 169.349 375.74 169.254 375.99C169.16 376.239 169.019 376.472 168.841 376.675L165.541 380.42C165.188 380.82 164.708 381.08 164.201 381.145C163.695 381.21 163.201 381.074 162.825 380.768L162.645 380.621C158.687 377.724 157.649 374.31 158.879 369.112C159.991 364.227 160.074 361.836 157.868 359.892C155.661 357.948 151.976 358.866 149.411 361.777C147.462 363.989 146.9 366.605 147.794 368.819C148.087 369.579 148.15 370.429 147.976 371.267C147.802 372.106 147.398 372.899 146.811 373.553C144.575 376.09 140.64 375.601 139.643 372.614C138.065 367.889 139.519 362.134 144.433 356.557ZM170.404 388.568C168.358 386.765 168.391 383.463 170.423 381.157C172.471 378.832 175.725 378.368 177.789 380.187C179.853 382.005 179.802 385.292 177.754 387.617C175.705 389.942 172.468 390.387 170.404 388.568Z" fill="white"/>
<path id="question-mark_11" d="M665.52 248.495C663.046 257.941 656.485 263.168 649.5 261.339C644.875 260.127 642.308 256.871 640.982 251.544C639.77 246.543 638.431 244.604 635.441 243.821C635.199 243.758 634.972 243.643 634.774 243.485C634.577 243.326 634.412 243.126 634.289 242.896C634.166 242.667 634.087 242.412 634.058 242.146C634.028 241.88 634.048 241.609 634.117 241.348L635.381 236.519C635.516 236.003 635.832 235.556 636.261 235.272C636.691 234.988 637.2 234.889 637.683 234.996L637.913 235.047C642.838 235.879 645.353 238.476 646.635 243.684C647.879 248.559 648.906 250.739 651.803 251.498C654.7 252.256 657.617 249.79 658.6 246.037C659.347 243.184 658.65 240.589 656.819 239.003C656.203 238.453 655.754 237.719 655.525 236.89C655.296 236.06 655.296 235.169 655.527 234.322C656.384 231.05 660.177 229.733 662.458 231.966C666.067 235.498 667.403 241.305 665.52 248.495ZM627.215 231.384C629.902 232.088 631.394 235.063 630.616 238.035C629.831 241.033 627.095 242.9 624.385 242.191C621.675 241.481 620.206 238.512 620.991 235.515C621.776 232.517 624.505 230.675 627.215 231.384Z" fill="#E25F5F"/>
<path id="question-mark_12" d="M380.268 131.976C389.745 129.62 397.454 132.787 399.165 139.669C400.297 144.226 398.655 147.982 394.603 151.652C390.784 155.07 389.716 157.144 390.448 160.09C390.508 160.328 390.515 160.578 390.469 160.823C390.424 161.069 390.327 161.306 390.183 161.521C390.04 161.735 389.853 161.924 389.634 162.076C389.414 162.227 389.166 162.339 388.904 162.404L384.059 163.608C383.542 163.737 382.999 163.677 382.546 163.442C382.092 163.208 381.763 162.816 381.628 162.349L381.564 162.127C379.956 157.492 381.043 154.094 385.011 150.518C388.704 147.132 390.132 145.213 389.423 142.359C388.713 139.505 385.16 138.164 381.395 139.1C378.533 139.811 376.583 141.643 376.059 143.973C375.868 144.765 375.437 145.5 374.817 146.091C374.197 146.682 373.414 147.104 372.559 147.308C369.277 148.123 366.318 145.483 367.197 142.459C368.586 137.676 373.055 133.768 380.268 131.976ZM383.426 173.076C382.768 170.429 384.674 167.732 387.656 166.991C390.663 166.243 393.604 167.712 394.267 170.381C394.931 173.051 393.02 175.726 390.013 176.473C387.005 177.22 384.09 175.746 383.426 173.076Z" fill="white"/>
</g>
</svg>
