<svg width="893" height="541" viewBox="0 0 893 541" fill="none" xmlns="http://www.w3.org/2000/svg">
<g id="weatherGirl" clip-path="url(#clip0)">
<path id="Vector" d="M73.8962 117.33C99.3013 117.33 119.896 96.7347 119.896 71.3296C119.896 45.9245 99.3013 25.3296 73.8962 25.3296C48.4911 25.3296 27.8962 45.9245 27.8962 71.3296C27.8962 96.7347 48.4911 117.33 73.8962 117.33Z" fill="#FF6584"/>
<path id="Vector_2" d="M444.003 540.802C689.219 540.802 888.006 532.743 888.006 522.802C888.006 512.861 689.219 504.802 444.003 504.802C198.787 504.802 0 512.861 0 522.802C0 532.743 198.787 540.802 444.003 540.802Z" fill="white"/>
<path id="Vector_3" d="M113 297.219C175.408 297.219 226 246.628 226 184.219C226 121.811 175.408 71.2194 113 71.2194C50.5918 71.2194 0 121.811 0 184.219C0 246.628 50.5918 297.219 113 297.219Z" fill="#7DBBA6"/>
<path id="Vector_4" d="M123.892 524.581H100.747L111.298 167.201L123.892 524.581Z" fill="#074A4E"/>
<path id="Vector_5" d="M113.34 234.933L138.187 200.557L113 243.442L110.277 238.677L113.34 234.933Z" fill="#074A4E"/>
<path id="Vector_6" d="M110.617 269.65L85.771 235.274L110.958 278.159L113.681 273.394L110.617 269.65Z" fill="#074A4E"/>
<path id="Vector_7" d="M827.505 524.957H804.361L814.912 167.577L827.505 524.957Z" fill="#074A4E"/>
<path id="Vector_8" d="M816.954 235.309L841.801 200.933L816.614 243.818L813.891 239.053L816.954 235.309Z" fill="#074A4E"/>
<path id="Vector_9" d="M814.231 270.026L789.385 235.65L814.572 278.535L817.295 273.77L814.231 270.026Z" fill="#074A4E"/>
<path id="Vector_10" d="M459.056 524.897C575.313 524.897 669.559 430.651 669.559 314.393C669.559 198.135 575.313 103.89 459.056 103.89C342.798 103.89 248.552 198.135 248.552 314.393C248.552 430.651 342.798 524.897 459.056 524.897Z" fill="#7DBBA6"/>
<g id="clockHand">
<path id="Vector_11" d="M459.056 507.471C565.689 507.471 652.133 421.027 652.133 314.393C652.133 207.759 565.689 121.315 459.056 121.315C352.422 121.315 265.978 207.759 265.978 314.393C265.978 421.027 352.422 507.471 459.056 507.471Z" fill="white"/>
<path id="Vector_12" d="M458.359 340.88C472.602 340.88 484.149 329.334 484.149 315.09C484.149 300.847 472.602 289.3 458.359 289.3C444.115 289.3 432.568 300.847 432.568 315.09C432.568 329.334 444.115 340.88 458.359 340.88Z" fill="#074A4E"/>
<path id="clockHand_2" d="M450.924 326.286L460.455 304.493L579.88 370.635L450.924 326.286Z" fill="#074A4E"/>
</g>
<path id="Vector_13" d="M463.935 131.074H452.782V151.985H463.935V131.074Z" fill="#074A4E"/>
<path id="Vector_14" d="M463.935 478.196H452.782V499.107H463.935V478.196Z" fill="#074A4E"/>
<path id="Vector_15" d="M295.253 320.667V309.514H274.342V320.667H295.253Z" fill="#074A4E"/>
<path id="Vector_16" d="M642.375 320.667V309.514H621.464V320.667H642.375Z" fill="#074A4E"/>
<path id="Vector_17" d="M486.24 53.0063H431.871V115.739H486.24V53.0063Z" fill="#7DBBA6"/>
<path id="Vector_18" d="M459.056 70.4321C493.702 70.4321 521.788 62.6304 521.788 53.0064C521.788 43.3824 493.702 35.5806 459.056 35.5806C424.409 35.5806 396.323 43.3824 396.323 53.0064C396.323 62.6304 424.409 70.4321 459.056 70.4321Z" fill="#7DBBA6"/>
<path id="Vector_19" d="M576.505 351.684L573.02 356.564C573.02 356.564 556.989 375.383 556.291 366.322C555.594 357.261 568.141 350.987 568.141 350.987L575.111 346.805L576.505 351.684Z" fill="#FFB8B8"/>
<path id="Vector_20" d="M675.725 368.146L678.643 373.384C678.643 373.384 688.791 395.928 680.303 392.68C671.815 389.432 671.515 375.408 671.515 375.408L670.718 367.318L675.725 368.146Z" fill="#FFB8B8"/>
<path id="Vector_21" d="M660.034 275.267C671.755 275.267 681.258 265.764 681.258 254.042C681.258 242.321 671.755 232.818 660.034 232.818C648.312 232.818 638.809 242.321 638.809 254.042C638.809 265.764 648.312 275.267 660.034 275.267Z" fill="#2F2E41"/>
<path id="Vector_22" d="M658.058 428.358L660.846 446.481V452.057H676.878V445.087C676.878 445.087 677.575 432.54 674.787 429.055C671.999 425.57 658.058 428.358 658.058 428.358Z" fill="#FFB8B8"/>
<path id="Vector_23" d="M629.48 428.358L632.268 446.481V452.057H648.3V445.087C648.3 445.087 648.997 432.54 646.209 429.055C643.421 425.57 629.48 428.358 629.48 428.358Z" fill="#FFB8B8"/>
<path id="Vector_24" d="M640.268 282.785C640.268 282.785 634.102 286.035 638.314 293.428C642.525 300.82 667.236 377.304 667.236 377.304L681.492 373.257L668.92 324.887L661.721 294.485L640.268 282.785Z" fill="#B7E0D2"/>
<path id="Vector_25" d="M657.71 276.057C666.564 276.057 673.741 268.879 673.741 260.025C673.741 251.171 666.564 243.993 657.71 243.993C648.856 243.993 641.678 251.171 641.678 260.025C641.678 268.879 648.856 276.057 657.71 276.057Z" fill="#FFB8B8"/>
<path id="Vector_26" d="M665.029 262.464L662.937 295.225L648.3 284.769C648.3 284.769 653.179 265.252 651.785 263.858L665.029 262.464Z" fill="#FFB8B8"/>
<path id="Vector_27" d="M665.029 292.437L649.259 280.76C649.259 280.76 642.026 277.799 639.935 281.284C637.844 284.769 627.389 336.35 632.965 346.108C632.965 346.108 662.937 352.382 669.211 348.896L671.999 330.774C671.999 330.774 675.484 319.621 669.908 312.651L665.029 292.437Z" fill="#B7E0D2"/>
<path id="Vector_28" d="M644.118 281.981C644.118 281.981 638.541 277.799 633.662 284.769C628.783 291.74 570.232 346.805 570.232 346.805L579.991 357.958L618.327 325.894L642.723 306.377L644.118 281.981Z" fill="#B7E0D2"/>
<path id="Vector_29" d="M669.559 348.548C669.559 348.548 635.056 341.926 631.571 346.805L630.874 354.473C630.874 354.473 623.207 369.11 627.389 392.809C631.571 416.508 628.783 431.146 628.783 431.146C628.783 431.146 647.603 429.055 661.543 431.146C675.484 433.237 677.575 431.146 677.575 431.146L669.559 348.548Z" fill="#7DBBA6"/>
<path id="Vector_30" d="M678.272 449.269L658.058 449.966L665.029 502.243C665.029 502.243 659.452 524.548 665.725 525.942C670.086 526.823 674.521 527.289 678.969 527.336C678.969 527.336 685.242 533.61 692.213 532.913C696.842 532.321 701.327 530.905 705.456 528.73C705.456 528.73 706.85 524.548 701.971 523.154C697.092 521.76 683.848 517.578 681.06 502.94L678.272 449.269Z" fill="#2F2E41"/>
<path id="Vector_31" d="M649.694 449.269L629.48 449.966L636.45 502.243C636.45 502.243 630.874 524.548 637.147 525.942C641.508 526.823 645.942 527.289 650.391 527.336C650.391 527.336 656.664 533.61 663.634 532.913C668.263 532.321 672.749 530.905 676.878 528.73C676.878 528.73 678.272 524.548 673.393 523.154C668.514 521.76 655.27 517.578 652.482 502.94L649.694 449.269Z" fill="#2F2E41"/>
<path id="Vector_32" d="M667.458 240.487C672.308 240.487 676.24 236.554 676.24 231.704C676.24 226.854 672.308 222.922 667.458 222.922C662.608 222.922 658.676 226.854 658.676 231.704C658.676 236.554 662.608 240.487 667.458 240.487Z" fill="#2F2E41"/>
<path id="Vector_33" d="M679.168 226.947C679.168 224.776 678.364 222.682 676.911 221.069C675.458 219.456 673.459 218.438 671.3 218.212C671.604 218.18 671.91 218.165 672.215 218.164C674.544 218.164 676.778 219.09 678.425 220.737C680.072 222.384 680.998 224.618 680.998 226.947C680.998 229.276 680.072 231.51 678.425 233.157C676.778 234.804 674.544 235.729 672.215 235.729C671.91 235.729 671.604 235.713 671.3 235.682C673.459 235.455 675.458 234.438 676.911 232.825C678.364 231.212 679.168 229.118 679.168 226.947Z" fill="#2F2E41"/>
<path id="Vector_34" d="M657.565 258.325C665.649 258.325 672.202 254.393 672.202 249.542C672.202 244.692 665.649 240.76 657.565 240.76C649.48 240.76 642.927 244.692 642.927 249.542C642.927 254.393 649.48 258.325 657.565 258.325Z" fill="#2F2E41"/>
<path id="snow5" d="M862 72C868.627 72 874 66.6274 874 60C874 53.3726 868.627 48 862 48C855.373 48 850 53.3726 850 60C850 66.6274 855.373 72 862 72Z" fill="white"/>
<path id="snow4" d="M788.992 72.9836C794.51 72.9836 798.984 68.5101 798.984 62.9918C798.984 57.4735 794.51 53 788.992 53C783.473 53 779 57.4735 779 62.9918C779 68.5101 783.473 72.9836 788.992 72.9836Z" fill="white"/>
<path id="snow3" d="M835 53C841.627 53 847 47.6274 847 41C847 34.3726 841.627 29 835 29C828.373 29 823 34.3726 823 41C823 47.6274 828.373 53 835 53Z" fill="white"/>
<path id="snow2" d="M780 72C786.627 72 792 66.6274 792 60C792 53.3726 786.627 48 780 48C773.373 48 768 53.3726 768 60C768 66.6274 773.373 72 780 72Z" fill="white"/>
<path id="snow1" d="M850 74C856.627 74 862 68.6274 862 62C862 55.3726 856.627 50 850 50C843.373 50 838 55.3726 838 62C838 68.6274 843.373 74 850 74Z" fill="white"/>
<path id="Vector_35" d="M837.594 505.566C837.598 505.436 837.614 505.309 837.614 505.178C837.617 503.167 837.114 501.188 836.151 499.423C835.188 497.658 833.797 496.163 832.105 495.077C830.413 493.99 828.474 493.348 826.468 493.207C824.463 493.067 822.454 493.433 820.627 494.273C818.912 492.294 816.596 490.932 814.033 490.396C811.471 489.86 808.803 490.179 806.439 491.304C804.075 492.429 802.145 494.298 800.945 496.625C799.745 498.952 799.341 501.609 799.795 504.187C799.734 504.186 799.675 504.178 799.614 504.178C797.704 504.175 795.82 504.628 794.12 505.5C792.42 506.371 790.953 507.636 789.84 509.189C788.728 510.742 788.002 512.538 787.723 514.428C787.445 516.318 787.621 518.247 788.239 520.055C788.856 521.863 789.896 523.497 791.272 524.822C792.648 526.147 794.321 527.125 796.151 527.673C797.981 528.221 799.915 528.325 801.793 527.975C803.671 527.625 805.438 526.832 806.948 525.661C807.901 527.517 809.321 529.092 811.068 530.231C812.815 531.37 814.829 532.034 816.912 532.157C818.994 532.28 821.072 531.858 822.941 530.932C824.81 530.006 826.406 528.609 827.57 526.878C828.998 527.917 830.638 528.628 832.372 528.959C834.106 529.291 835.892 529.235 837.603 528.797C839.313 528.358 840.906 527.547 842.266 526.421C843.627 525.296 844.722 523.884 845.474 522.286C846.225 520.688 846.615 518.944 846.614 517.178C846.613 515.412 846.223 513.668 845.47 512.071C844.717 510.474 843.621 509.063 842.259 507.938C840.898 506.814 839.305 506.004 837.594 505.566Z" fill="white"/>
<path id="snow9" d="M830 47C832.761 47 835 44.7614 835 42C835 39.2386 832.761 37 830 37C827.239 37 825 39.2386 825 42C825 44.7614 827.239 47 830 47Z" fill="white"/>
<path id="snow6" d="M733 74C735.761 74 738 71.7614 738 69C738 66.2386 735.761 64 733 64C730.239 64 728 66.2386 728 69C728 71.7614 730.239 74 733 74Z" fill="white"/>
<path id="Vector_36" d="M818.614 235.178C821.375 235.178 823.614 232.939 823.614 230.178C823.614 227.417 821.375 225.178 818.614 225.178C815.852 225.178 813.614 227.417 813.614 230.178C813.614 232.939 815.852 235.178 818.614 235.178Z" fill="white"/>
<path id="Vector_37" d="M822.614 230.178C825.375 230.178 827.614 227.939 827.614 225.178C827.614 222.417 825.375 220.178 822.614 220.178C819.852 220.178 817.614 222.417 817.614 225.178C817.614 227.939 819.852 230.178 822.614 230.178Z" fill="white"/>
<path id="Vector_38" d="M825.614 225.178C828.375 225.178 830.614 222.939 830.614 220.178C830.614 217.417 828.375 215.178 825.614 215.178C822.852 215.178 820.614 217.417 820.614 220.178C820.614 222.939 822.852 225.178 825.614 225.178Z" fill="white"/>
<path id="Vector_39" d="M813.614 267.178C816.375 267.178 818.614 264.939 818.614 262.178C818.614 259.417 816.375 257.178 813.614 257.178C810.852 257.178 808.614 259.417 808.614 262.178C808.614 264.939 810.852 267.178 813.614 267.178Z" fill="white"/>
<path id="snow10" d="M857 70C859.761 70 862 67.7614 862 65C862 62.2386 859.761 60 857 60C854.239 60 852 62.2386 852 65C852 67.7614 854.239 70 857 70Z" fill="white"/>
<path id="snow8" d="M814 65C816.761 65 819 62.7614 819 60C819 57.2386 816.761 55 814 55C811.239 55 809 57.2386 809 60C809 62.7614 811.239 65 814 65Z" fill="white"/>
<path id="snow7" d="M871 69C873.761 69 876 66.7614 876 64C876 61.2386 873.761 59 871 59C868.239 59 866 61.2386 866 64C866 66.7614 868.239 69 871 69Z" fill="white"/>
<path id="Vector_40" d="M809.614 262.178C812.375 262.178 814.614 259.939 814.614 257.178C814.614 254.417 812.375 252.178 809.614 252.178C806.852 252.178 804.614 254.417 804.614 257.178C804.614 259.939 806.852 262.178 809.614 262.178Z" fill="white"/>
<path id="Vector_41" d="M804.614 254.178C807.375 254.178 809.614 251.939 809.614 249.178C809.614 246.417 807.375 244.178 804.614 244.178C801.852 244.178 799.614 246.417 799.614 249.178C799.614 251.939 801.852 254.178 804.614 254.178Z" fill="white"/>
<path id="snow1_2" d="M775 70C778.314 70 781 67.3137 781 64C781 60.6863 778.314 58 775 58C771.686 58 769 60.6863 769 64C769 67.3137 771.686 70 775 70Z" fill="white"/>
<path id="snow1_3" d="M818 64C821.314 64 824 61.3137 824 58C824 54.6863 821.314 52 818 52C814.686 52 812 54.6863 812 58C812 61.3137 814.686 64 818 64Z" fill="white"/>
<path id="snow1_4" d="M860 59C863.314 59 866 56.3137 866 53C866 49.6863 863.314 47 860 47C856.686 47 854 49.6863 854 53C854 56.3137 856.686 59 860 59Z" fill="white"/>
<path id="snow1_5" d="M826 65C829.314 65 832 62.3137 832 59C832 55.6863 829.314 53 826 53C822.686 53 820 55.6863 820 59C820 62.3137 822.686 65 826 65Z" fill="white"/>
<path id="snow1_6" d="M806 61C809.314 61 812 58.3137 812 55C812 51.6863 809.314 49 806 49C802.686 49 800 51.6863 800 55C800 58.3137 802.686 61 806 61Z" fill="white"/>
<path id="snow1_7" d="M797 71C800.314 71 803 68.3137 803 65C803 61.6863 800.314 59 797 59C793.686 59 791 61.6863 791 65C791 68.3137 793.686 71 797 71Z" fill="white"/>
<path id="snow1_8" d="M778 71C781.314 71 784 68.3137 784 65C784 61.6863 781.314 59 778 59C774.686 59 772 61.6863 772 65C772 68.3137 774.686 71 778 71Z" fill="white"/>
<path id="snow1_9" d="M869 71C872.314 71 875 68.3137 875 65C875 61.6863 872.314 59 869 59C865.686 59 863 61.6863 863 65C863 68.3137 865.686 71 869 71Z" fill="white"/>
<path id="snow1_10" d="M842 71C845.314 71 848 68.3137 848 65C848 61.6863 845.314 59 842 59C838.686 59 836 61.6863 836 65C836 68.3137 838.686 71 842 71Z" fill="white"/>
<path id="snow1_11" d="M762 71C765.314 71 768 68.3137 768 65C768 61.6863 765.314 59 762 59C758.686 59 756 61.6863 756 65C756 68.3137 758.686 71 762 71Z" fill="white"/>
<path id="snow1_12" d="M816 71C819.314 71 822 68.3137 822 65C822 61.6863 819.314 59 816 59C812.686 59 810 61.6863 810 65C810 68.3137 812.686 71 816 71Z" fill="white"/>
<path id="Vector_42" d="M888.12 42.1512C887.522 31.5801 883.189 21.5648 875.894 13.8912C868.598 6.21749 858.815 1.38415 848.288 0.252889C837.76 -0.878367 827.173 1.766 818.414 7.71451C809.655 13.663 803.293 22.529 800.463 32.7318C799.922 32.7123 799.381 32.6906 798.835 32.6906C789.183 32.6924 779.791 35.8193 772.063 41.6037C764.336 47.388 758.69 55.5188 755.969 64.7795C749.573 61.9692 742.425 61.3595 735.645 63.0458C728.866 64.7322 722.837 68.6194 718.503 74.0987H857.865C861.931 74.1102 865.957 73.3012 869.703 71.7201C873.448 70.139 876.837 67.8183 879.664 64.897C882.492 61.9757 884.701 58.5139 886.159 54.7188C887.618 50.9236 888.295 46.8732 888.151 42.8101C888.142 42.5908 888.132 42.3712 888.12 42.1512Z" fill="white"/>
</g>
<defs>
<clipPath id="clip0">
<rect width="892.614" height="540.802" fill="white"/>
</clipPath>
</defs>
</svg>
